<svg xmlns="http://www.w3.org/2000/svg" viewBox="0 0 64 64">
  <defs>
    <linearGradient id="gold" x1="0%" y1="0%" x2="100%" y2="100%">
      <stop offset="0%" stop-color="#f4d77e" />
      <stop offset="55%" stop-color="#ddb458" />
      <stop offset="100%" stop-color="#b8862f" />
    </linearGradient>
    <radialGradient id="glow" cx="50%" cy="50%" r="55%">
      <stop offset="0%" stop-color="#f7e29d" stop-opacity="0.55" />
      <stop offset="100%" stop-color="#f7e29d" stop-opacity="0" />
    </radialGradient>
  </defs>
  <rect width="64" height="64" rx="14" fill="#17171a" />
  <rect x="1.5" y="1.5" width="61" height="61" rx="12.5" fill="none" stroke="#2a2a2d" />
  <circle cx="32" cy="31" r="22" fill="url(#glow)" />
  <g fill="url(#gold)" stroke="#2a1e08" stroke-width="0.8" stroke-linejoin="round">
    <path d="M10 44 L24 35 H40 L54 44 L42 44 L32 40 L22 44 Z" />
    <rect x="18" y="25" width="5" height="13" rx="1" />
    <rect x="25" y="19" width="5" height="19" rx="1" />
    <rect x="31" y="14" width="6" height="24" rx="1" />
    <rect x="38" y="21" width="5" height="17" rx="1" />
    <rect x="45" y="26" width="4" height="12" rx="1" />
    <path d="M25 44 A7 7 0 0 1 39 44 L35 44 A3 3 0 0 0 29 44 Z" />
  </g>
</svg>
