<svg xmlns="http://www.w3.org/2000/svg" viewBox="0 0 64 64">
  <defs>
    <linearGradient id="gold" x1="0%" y1="0%" x2="100%" y2="100%">
      <stop offset="0%" stop-color="#f4d77e" />
      <stop offset="55%" stop-color="#ddb458" />
      <stop offset="100%" stop-color="#b8862f" />
    </linearGradient>
    <radialGradient id="glow" cx="50%" cy="50%" r="55%">
      <stop offset="0%" stop-color="#f7e29d" stop-opacity="0.55" />
      <stop offset="100%" stop-color="#f7e29d" stop-opacity="0" />
    </radialGradient>
  </defs>
  <rect width="64" height="64" rx="10" fill="#17171a" />
  <circle cx="32" cy="31" r="27" fill="url(#glow)" />
  <g fill="url(#gold)" stroke="#2a1e08" stroke-width="0.8" stroke-linejoin="round">
    <path d="M6 46 L23 35 H41 L58 46 L43 46 L32 41 L21 46 Z" />
    <rect x="15" y="23" width="6" height="15" rx="1" />
    <rect x="23" y="16" width="6" height="22" rx="1" />
    <rect x="30" y="10" width="7" height="28" rx="1" />
    <rect x="38" y="18" width="6" height="20" rx="1" />
    <rect x="46" y="24" width="5" height="14" rx="1" />
    <path d="M24 46 A8 8 0 0 1 40 46 L35.5 46 A3.5 3.5 0 0 0 28.5 46 Z" />
  </g>
</svg>
